<?xml version="1.0" standalone="no"?>
<!DOCTYPE svg PUBLIC "-//W3C//DTD SVG 20010904//EN"
 "http://www.w3.org/TR/2001/REC-SVG-20010904/DTD/svg10.dtd">
<svg version="1.0" xmlns="http://www.w3.org/2000/svg"
 width="384.000000pt" height="384.000000pt" viewBox="0 0 384.000000 384.000000"
 preserveAspectRatio="xMidYMid meet">
<metadata>
Created by potrace 1.14, written by Peter Selinger 2001-2017
</metadata>
<g transform="translate(0.000000,384.000000) scale(0.100000,-0.100000)"
fill="#000000" stroke="none">
<path d="M1512 3201 c-29 -11 -68 -29 -86 -40 -53 -33 -125 -117 -154 -179
l-27 -57 0 -1005 0 -1005 27 -58 c37 -79 114 -157 195 -198 l67 -34 374 -3
c406 -3 421 -2 519 55 50 29 127 111 152 162 42 84 42 87 39 1101 l-3 975 -23
58 c-33 81 -116 168 -200 209 l-67 33 -380 2 c-353 3 -384 1 -433 -16z m813
-206 c36 -22 57 -45 77 -84 l28 -53 0 -419 0 -419 -500 0 -500 0 0 423 0 422
30 52 c29 50 65 83 111 102 14 6 164 9 365 8 l341 -2 48 -30z m-875 -1189 c0
-3 -4 -8 -10 -11 -5 -3 -10 -1 -10 4 0 6 5 11 10 11 6 0 10 -2 10 -4z m-13
-554 c-1 -81 -3 -12 -3 153 0 165 2 231 3 147 2 -84 2 -219 0 -300z m0 -189
c-3 -10 -5 -4 -5 12 0 17 2 24 5 18 2 -7 2 -21 0 -30z m95 -190 c-6 -2 -9 -10
-6 -15 4 -7 2 -8 -5 -4 -13 9 -5 26 12 25 9 0 8 -2 -1 -6z"/>
</g>
</svg>
